# xmcd
#
# Track frame offsets:
#	150
#	14703
#	31085
#	44444
#	56601
#	69816
#	81526
#	96242
#	104317
#	120995
#	131246
#	143417
#
# Disc length: 2052 seconds
# Revision: 0
# Processed by: cddbd v1.5.2PL0 Copyright (c) Steve Scherf et al.
# Submitted via: dBpowerAMP V12.0
#
DISCID=9f08020c
DTITLE=關正傑 - 關正傑_近代豪俠傳
DYEAR=2003
DGENRE=Soundtrack
TTITLE0=近代豪俠傳
TTITLE1=前程萬里
TTITLE2=哈囉夜歸人
TTITLE3=孽緣
TTITLE4=無名英雄
TTITLE5=人海奇譚
TTITLE6=神龍猛虎闖金關
TTITLE7=俠骨無情劍
TTITLE8=愛戀太奇妙
TTITLE9=努力向前闖
TTITLE10=鬼馬智多星
TTITLE11=近代豪俠傳音樂
EXTD=
EXTT0=
EXTT1=
EXTT2=
EXTT3=
EXTT4=
EXTT5=
EXTT6=
EXTT7=
EXTT8=
EXTT9=
EXTT10=
EXTT11=
PLAYORDER=
